<?xml version="1.0" encoding="utf-8"?>
<!-- Generator: Adobe Illustrator 16.0.0, SVG Export Plug-In . SVG Version: 6.00 Build 0)  -->
<!DOCTYPE svg PUBLIC "-//W3C//DTD SVG 1.1//EN" "http://www.w3.org/Graphics/SVG/1.1/DTD/svg11.dtd">
<svg version="1.1" id="Layer_1" xmlns="http://www.w3.org/2000/svg" xmlns:xlink="http://www.w3.org/1999/xlink" x="0px" y="0px"
	 width="84px" height="84px" viewBox="0 0 84 84" enable-background="new 0 0 84 84" xml:space="preserve">
<g>
	<path fill="#0064FF" d="M51.459,0.001H32.541C14.569,0.001,0,14.327,0,32.001v20c0,17.673,14.569,32,32.541,32h18.918
		c17.973,0,32.541-14.327,32.541-32v-20C84,14.327,69.432,0.001,51.459,0.001z"/>
	<path fill="#FFFFFF" d="M39,14.001c-12.15,0-22,9.85-22,22s9.85,22,22,22v-12c-5.523,0-10-4.478-10-10s4.477-10,10-10
		c8.836,0,16,7.163,16,16s-7.164,16-16,16v12c15.464,0,28-12.536,28-28S54.464,14.001,39,14.001z"/>
</g>
</svg>
